# File created by Blade
# Date/Time:  Wed Apr 08 17:35:25 2015
# Frame Rate: 120.000 fps
#------------------------------------------------------
:FULLY-SPECIFIED
:DEGREES
2504
root 10.926258 38.554373 5.982631 189.948473 -33.037134 -139.877487
Spine -13.106321 2.359308 2.335416
Head 37.226186 3.323856 27.633518
LeftShoulder -6.982089 18.137955 19.258493
LeftArm 21.889177 21.451252 -71.678283
LeftForeArm 15.272189 0.000000 28.812508
LeftHand -14.010707 -0.000000 -8.114937
LeftHandThumb1 -26.253704 0.000000 33.147579
RightShoulder -37.125221 -47.791841 20.886941
RightArm 48.521243 -9.558512 61.028377
RightForeArm 5.488523 -0.000000 12.499546
RightHand -0.627099 -0.000000 15.366308
RightHandThumb1 -24.326973 -0.000000 -32.862282
LeftUpLeg -53.991907 43.089250 -7.910179
LeftLeg 7.708452 -0.000000 -0.000000
LeftFoot -6.319382 22.093677 -2.058939
LeftToeBase 6.756393 -0.000000 -0.000000
RightUpLeg -70.484841 -10.563058 0.186367
RightLeg 132.257883 -0.000000 -0.000000
RightFoot 31.766721 -1.059429 25.502239
RightToeBase 19.195542 -0.000000 -0.000000
2505
root 10.940278 38.548849 5.976862 189.821520 -33.053776 -139.913704
Spine -12.961177 2.345394 2.364182
Head 37.243965 3.284063 27.630417
LeftShoulder -6.953577 18.127501 19.299326
LeftArm 21.866911 21.408513 -71.715371
LeftForeArm 15.261832 -0.000000 28.851856
LeftHand -14.021938 -0.000000 -8.123631
LeftHandThumb1 -26.253704 0.000000 33.147579
RightShoulder -37.097953 -47.750305 20.860680
RightArm 48.534151 -9.517224 60.950795
RightForeArm 5.713508 0.000000 12.495797
RightHand -0.569773 -0.000000 15.843954
RightHandThumb1 -24.326973 -0.000000 -32.862282
LeftUpLeg -53.709017 43.008442 -7.647336
LeftLeg 7.717955 -0.000000 -0.000000
LeftFoot -6.329000 22.216633 -2.073496
LeftToeBase 6.772304 -0.000000 -0.000000
RightUpLeg -70.566950 -10.029313 0.161986
RightLeg 132.354567 -0.000000 -0.000000
RightFoot 31.732120 -0.769567 25.257900
RightToeBase 19.615009 -0.000000 -0.000000
2506
root 10.954442 38.544402 5.972296 189.743968 -33.077941 -139.956759
Spine -12.880664 2.317490 2.385551
Head 37.284305 3.261098 27.644540
LeftShoulder -6.934836 18.133992 19.330831
LeftArm 21.851870 21.394583 -71.731852
LeftForeArm 15.238650 -0.000000 28.893230
LeftHand -14.083509 -0.000000 -8.078243
LeftHandThumb1 -26.253704 0.000000 33.147579
RightShoulder -37.040042 -47.722289 20.811869
RightArm 48.490477 -9.425793 60.945448
RightForeArm 5.924777 -0.000000 12.532140
RightHand -0.610893 0.000000 16.461372
RightHandThumb1 -24.326973 -0.000000 -32.862282
LeftUpLeg -53.525452 42.936142 -7.474892
LeftLeg 7.740241 -0.000000 -0.000000
LeftFoot -6.320300 22.306185 -2.052899
LeftToeBase 6.790283 -0.000000 -0.000000
RightUpLeg -70.735577 -9.512887 0.252016
RightLeg 132.441410 -0.000000 -0.000000
RightFoot 31.514317 -0.523474 25.015936
RightToeBase 20.193557 -0.000000 -0.000000
2507
root 10.968444 38.539001 5.962208 189.577838 -33.142164 -139.984194
Spine -12.707865 2.265909 2.431601
Head 37.331461 3.235560 27.643506
LeftShoulder -6.927841 18.119887 19.324284
LeftArm 21.861219 21.401382 -71.693710
LeftForeArm 15.180317 -0.000000 28.933700
LeftHand -14.138978 -0.000000 -8.017143
LeftHandThumb1 -26.253704 0.000000 33.147579
RightShoulder -37.025040 -47.694705 20.813258
RightArm 48.499829 -9.367905 60.846903
RightForeArm 6.357275 0.000000 12.540498
RightHand -0.682721 -0.000000 17.094147
RightHandThumb1 -24.326973 -0.000000 -32.862282
LeftUpLeg -53.245841 42.860987 -7.226368
LeftLeg 7.770873 -0.000000 -0.000000
LeftFoot -6.322046 22.363517 -2.049774
LeftToeBase 6.737550 -0.000000 -0.000000
RightUpLeg -70.836658 -9.067200 0.478880
RightLeg 132.518280 -0.000000 -0.000000
RightFoot 31.150711 -0.230303 24.711310
RightToeBase 20.628054 -0.000000 -0.000000
2508
root 10.983422 38.532860 5.951776 189.414742 -33.206755 -140.027126
Spine -12.528450 2.205439 2.467582
Head 37.381234 3.211487 27.630268
LeftShoulder -6.931386 18.133442 19.300679
LeftArm 21.889826 21.360557 -71.653315
LeftForeArm 15.164005 -0.000000 28.968226
LeftHand -14.124322 -0.000000 -7.997951
LeftHandThumb1 -26.253704 0.000000 33.147579
RightShoulder -36.961009 -47.696230 20.768638
RightArm 48.452677 -9.250642 60.888290
RightForeArm 6.654918 -0.000000 12.609049
RightHand -0.742002 0.000000 17.604205
RightHandThumb1 -24.326973 -0.000000 -32.862282
LeftUpLeg -53.003980 42.825510 -7.052197
LeftLeg 7.795032 -0.000000 -0.000000
LeftFoot -6.324970 22.358115 -2.037016
LeftToeBase 6.713938 -0.000000 -0.000000
RightUpLeg -70.963254 -8.661019 0.814487
RightLeg 132.583136 -0.000000 -0.000000
RightFoot 30.513772 -0.136931 24.627721
RightToeBase 21.620893 -0.000000 -0.000000
2509
root 10.998537 38.526298 5.940842 189.240371 -33.299879 -140.075756
Spine -12.335440 2.110597 2.504567
Head 37.450041 3.217090 27.588683
LeftShoulder -6.929229 18.084833 19.281536
LeftArm 21.849162 21.333098 -71.632980
LeftForeArm 15.125987 -0.000000 29.011246
LeftHand -14.118445 -0.000000 -7.991745
LeftHandThumb1 -26.253704 0.000000 33.147579
RightShoulder -36.910441 -47.646122 20.710587
RightArm 48.400571 -9.124102 60.957492
RightForeArm 6.909143 -0.000000 12.636069
RightHand -0.823514 -0.000000 18.199052
RightHandThumb1 -24.326973 -0.000000 -32.862282
LeftUpLeg -52.730799 42.765731 -6.871756
LeftLeg 7.790181 -0.000000 -0.000000
LeftFoot -6.306558 22.360247 -1.992143
LeftToeBase 6.716827 -0.000000 -0.000000
RightUpLeg -71.107087 -8.315251 1.292303
RightLeg 132.631218 -0.000000 -0.000000
RightFoot 29.844718 0.066503 24.260027
RightToeBase 21.813766 -0.000000 -0.000000
